<svg width="20" height="20" viewBox="0 0 20 20" fill="none" xmlns="http://www.w3.org/2000/svg">
<g clip-path="url(#clip0_9_11)">
<path fill-rule="evenodd" clip-rule="evenodd" d="M9.99999 4.86499C9.32565 4.86499 8.65792 4.99781 8.03491 5.25587C7.4119 5.51393 6.84583 5.89217 6.369 6.369C5.89217 6.84583 5.51393 7.4119 5.25587 8.03491C4.99781 8.65792 4.86499 9.32565 4.86499 9.99999C4.86499 10.6743 4.99781 11.3421 5.25587 11.9651C5.51393 12.5881 5.89217 13.1542 6.369 13.631C6.84583 14.1078 7.4119 14.4861 8.03491 14.7441C8.65792 15.0022 9.32565 15.135 9.99999 15.135C11.3619 15.135 12.668 14.594 13.631 13.631C14.594 12.668 15.135 11.3619 15.135 9.99999C15.135 8.6381 14.594 7.332 13.631 6.369C12.668 5.406 11.3619 4.86499 9.99999 4.86499ZM9.99999 13.3333C9.11593 13.3333 8.26809 12.9821 7.64297 12.357C7.01785 11.7319 6.66666 10.884 6.66666 9.99999C6.66666 9.11593 7.01785 8.26809 7.64297 7.64297C8.26809 7.01785 9.11593 6.66666 9.99999 6.66666C10.884 6.66666 11.7319 7.01785 12.357 7.64297C12.9821 8.26809 13.3333 9.11593 13.3333 9.99999C13.3333 10.884 12.9821 11.7319 12.357 12.357C11.7319 12.9821 10.884 13.3333 9.99999 13.3333Z" fill="black"/>
<path d="M15.3375 5.86089C15.4977 5.86511 15.6571 5.8372 15.8064 5.77882C15.9556 5.72043 16.0916 5.63275 16.2064 5.52094C16.3212 5.40913 16.4124 5.27546 16.4747 5.12782C16.537 4.98018 16.5691 4.82155 16.5691 4.6613C16.5691 4.50106 16.537 4.34243 16.4747 4.19479C16.4124 4.04715 16.3212 3.91348 16.2064 3.80167C16.0916 3.68986 15.9556 3.60218 15.8064 3.54379C15.6571 3.4854 15.4977 3.4575 15.3375 3.46172C15.0193 3.46172 14.714 3.58815 14.489 3.81319C14.2639 4.03824 14.1375 4.34346 14.1375 4.66172C14.1375 4.97998 14.2639 5.2852 14.489 5.51025C14.714 5.73529 15.0193 5.86089 15.3375 5.86089Z" fill="black"/>
<path fill-rule="evenodd" clip-rule="evenodd" d="M10 0C7.28417 0 6.94333 0.0116667 5.87667 0.06C4.8125 0.108333 4.085 0.2775 3.45 0.525C2.78259 0.776004 2.17797 1.1696 1.67833 1.67833C1.1696 2.17797 0.776004 2.78259 0.525 3.45C0.2775 4.08583 0.108333 4.8125 0.06 5.87667C0.0116667 6.94333 0 7.28417 0 10C0 12.7158 0.0116667 13.0567 0.06 14.1233C0.108333 15.1875 0.2775 15.915 0.525 16.55C0.780833 17.2083 1.1225 17.7658 1.67833 18.3217C2.17794 18.8304 2.78256 19.224 3.45 19.475C4.08583 19.7225 4.8125 19.8917 5.87667 19.94C6.94333 19.9883 7.28417 20 10 20C12.7158 20 13.0567 19.9883 14.1233 19.94C15.1875 19.8908 15.915 19.7225 16.55 19.475C17.2174 19.224 17.8221 18.8304 18.3217 18.3217C18.8304 17.8221 19.224 17.2174 19.475 16.55C19.7225 15.9142 19.8917 15.1875 19.94 14.1233C19.9883 13.0567 20 12.7158 20 10C20 7.28417 19.9883 6.94333 19.94 5.87667C19.8908 4.8125 19.7225 4.085 19.475 3.45C19.224 2.78256 18.8304 2.17794 18.3217 1.67833C17.822 1.16958 17.2174 0.77598 16.55 0.525C15.9142 0.2775 15.1875 0.108333 14.1233 0.06C13.0567 0.0116667 12.7158 0 10 0ZM10 1.80167C12.67 1.80167 12.9867 1.81167 14.0408 1.86C15.0158 1.90417 15.545 2.0675 15.8975 2.20417C16.3642 2.38583 16.6975 2.6025 17.0475 2.9525C17.3975 3.3025 17.6142 3.63583 17.7958 4.1025C17.9325 4.455 18.0958 4.98417 18.14 5.95917C18.1883 7.01333 18.1983 7.33 18.1983 10C18.1983 12.67 18.1883 12.9867 18.14 14.0408C18.0958 15.0158 17.9325 15.545 17.7958 15.8975C17.6142 16.3642 17.3975 16.6975 17.0475 17.0475C16.6975 17.3975 16.3642 17.6142 15.8975 17.7958C15.545 17.9325 15.0158 18.0958 14.0408 18.14C12.9867 18.1883 12.67 18.1983 10 18.1983C7.33 18.1983 7.01333 18.1883 5.95833 18.14C4.98333 18.0958 4.455 17.9325 4.1025 17.7958C3.66805 17.6355 3.27507 17.3798 2.9525 17.0475C2.6025 16.6975 2.38583 16.3642 2.20417 15.8975C2.0675 15.545 1.90417 15.0158 1.86 14.0408C1.81167 12.9867 1.80167 12.67 1.80167 10C1.80167 7.33 1.81167 7.01333 1.86 5.95917C1.90417 4.98417 2.0675 4.455 2.20417 4.1025C2.38583 3.63583 2.6025 3.3025 2.9525 2.9525C3.3025 2.6025 3.63583 2.38583 4.1025 2.20417C4.455 2.0675 4.98417 1.90417 5.95917 1.86C7.01333 1.81167 7.33 1.80167 10 1.80167Z" fill="black"/>
</g>
<defs>
<clipPath id="clip0_9_11">
<rect width="20" height="20" fill="white"/>
</clipPath>
</defs>
</svg>
