<svg width="18" height="18" viewBox="0 0 18 18" fill="none" xmlns="http://www.w3.org/2000/svg">
<path fill-rule="evenodd" clip-rule="evenodd" d="M18 18H14.2721V12.1531C14.2721 10.7582 14.2466 8.96483 12.3338 8.96483C10.3925 8.96483 10.0952 10.4838 10.0952 12.0522V18H6.36748V5.97672H9.94604V7.61941H9.99562C10.4934 6.67428 11.7102 5.67755 13.5251 5.67755C17.3026 5.67755 18 8.16775 18 11.405V18ZM2.16348 4.33318C0.967775 4.33318 0 3.36199 0 2.16597C0 0.970841 0.967775 0 2.16348 0C3.35604 0 4.32521 0.970841 4.32521 2.16597C4.32521 3.36199 3.35604 4.33318 2.16348 4.33318ZM0.297408 18H4.02791V5.97673H0.297408V18Z" fill="black"/>
</svg>
