<svg width="23" height="17" viewBox="0 0 23 17" fill="none" xmlns="http://www.w3.org/2000/svg">
<path fill-rule="evenodd" clip-rule="evenodd" d="M19.9246 0.000732822C19.1972 0.000732822 18.0782 0.392947 12.7308 2.5815C10.8444 3.35024 7.08223 4.93741 1.44437 7.34299C0.533148 7.70382 0.0535564 8.04897 0.00559727 8.39412C-0.0823278 9.0452 0.876855 9.24915 2.09182 9.64136C3.06389 9.98361 4.072 10.2178 5.09726 10.3395C5.86062 10.2943 6.59152 10.0205 7.19147 9.55508C12.451 6.06175 15.166 4.2994 15.3365 4.26803C15.4564 4.26803 15.6243 4.20527 15.7362 4.26803C15.7767 4.31373 15.8063 4.36772 15.8229 4.42606C15.8395 4.48441 15.8426 4.54565 15.8321 4.60533C15.7362 5.00539 10.7884 9.41388 10.5086 9.70412C9.42157 10.8102 8.18263 11.4926 10.085 12.7242C11.7396 13.791 12.6988 14.4734 14.4013 15.5638C15.4884 16.2619 16.3357 17.0934 17.4627 16.9915C17.9743 16.9444 18.5098 16.4659 18.7816 15.0461C19.429 11.7672 20.684 4.47982 20.9797 1.4833C21.0068 1.23561 21.0068 0.98579 20.9797 0.738096C20.9581 0.536534 20.8579 0.350999 20.7 0.220373C20.4717 0.0684767 20.2002 -0.00842685 19.9246 0.000732822Z" fill="white"/>
</svg>
