<svg width="17" height="20" viewBox="0 0 17 20" fill="none" xmlns="http://www.w3.org/2000/svg">
<path d="M17 8.09167C16.8392 8.10667 16.6767 8.11667 16.5117 8.11667C15.6293 8.11593 14.7611 7.89471 13.986 7.47309C13.2109 7.05148 12.5534 6.44284 12.0733 5.7025V13.9233C12.0733 17.2792 9.37 20 6.03667 20C2.70333 20 0 17.2792 0 13.9233C0 10.5683 2.7025 7.8475 6.03667 7.8475C6.1625 7.8475 6.28583 7.85833 6.41 7.86667V10.8608C6.28583 10.8458 6.16417 10.8233 6.03667 10.8233C4.335 10.8233 2.95583 12.2108 2.95583 13.9242C2.95583 15.6375 4.335 17.0258 6.03667 17.0258C7.73833 17.0258 9.24167 15.6758 9.24167 13.9625L9.27083 0H12.1142C12.3817 2.55833 14.4342 4.57833 17 4.76417V8.09167Z" fill="black"/>
</svg>
