<svg width="34" height="20" viewBox="0 0 34 20" fill="none" xmlns="http://www.w3.org/2000/svg">
<path fill-rule="evenodd" clip-rule="evenodd" d="M33.2198 1.34976C33.4561 0.571716 33.2198 0 32.095 0H28.3754C27.4296 0 26.9936 0.493877 26.7571 1.03847C26.7571 1.03847 24.8655 5.58997 22.1858 8.54642C21.319 9.40227 20.9249 9.67464 20.452 9.67464C20.2155 9.67464 19.8608 9.40227 19.8608 8.6243V1.34976C19.8608 0.416108 19.5989 0 18.8106 0H12.9655C12.3745 0 12.019 0.433322 12.019 0.844006C12.019 1.72909 13.3588 1.93321 13.4969 4.42294V9.83026C13.4969 11.0157 13.28 11.2307 12.8071 11.2307C11.5462 11.2307 8.47885 6.6589 6.65965 1.42753C6.30313 0.410727 5.94555 0 4.99493 0H1.27531C0.212562 0 0 0.493877 0 1.03847C0 2.01105 1.26103 6.83484 5.87157 13.2147C8.94524 17.5715 13.2758 19.9333 17.2165 19.9333C19.5809 19.9333 19.8734 19.4088 19.8734 18.5053V15.2123C19.8734 14.1632 20.0974 13.9538 20.8461 13.9538C21.3978 13.9538 22.3435 14.2261 24.5503 16.3268C27.0724 18.8165 27.4881 19.9333 28.9067 19.9333H32.6264C33.689 19.9333 34.2204 19.4088 33.9139 18.3735C33.5784 17.3419 32.3744 15.845 30.7767 14.0705C29.9097 13.059 28.6092 11.9698 28.215 11.4251C27.6634 10.725 27.8211 10.4137 28.215 9.79139C28.215 9.79139 32.747 3.48929 33.2198 1.34976Z" fill="white"/>
</svg>
