<svg width="20" height="20" viewBox="0 0 20 20" fill="none" xmlns="http://www.w3.org/2000/svg">
<path fill-rule="evenodd" clip-rule="evenodd" d="M13.975 11.4859C13.7358 11.3667 12.5633 10.7925 12.345 10.7134C12.1267 10.6342 11.9675 10.595 11.8083 10.8325C11.65 11.07 11.1925 11.6042 11.0533 11.7634C10.9142 11.9217 10.775 11.9409 10.5367 11.8217C10.2983 11.7034 9.53 11.4525 8.61917 10.6442C7.91083 10.015 7.43167 9.23838 7.2925 9.00005C7.15333 8.76255 7.2775 8.63422 7.3975 8.51672C7.50417 8.41005 7.63583 8.23922 7.755 8.10005C7.87417 7.96172 7.91333 7.86255 7.99333 7.70422C8.0725 7.54588 8.03333 7.40755 7.97333 7.28838C7.91417 7.17005 7.43667 6.00172 7.23833 5.52672C7.045 5.06422 6.84833 5.12672 6.70167 5.11922C6.5625 5.11255 6.40333 5.11088 6.245 5.11088C6.08583 5.11088 5.8275 5.17005 5.60917 5.40755C5.39 5.64588 4.77417 6.21922 4.77417 7.38755C4.77417 8.55588 5.62917 9.68422 5.74833 9.84255C5.8675 10.0009 7.42917 12.3975 9.82167 13.4259C10.3908 13.67 10.835 13.8167 11.1808 13.9259C11.7517 14.1067 12.2725 14.0809 12.6825 14.02C13.1408 13.9517 14.0933 13.445 14.2925 12.8917C14.4908 12.3367 14.4908 11.8617 14.4317 11.7634C14.3717 11.6634 14.2125 11.605 13.9742 11.4859H13.975ZM9.62333 17.3984H9.62C8.20035 17.3988 6.80651 17.019 5.58333 16.2984L5.29333 16.1267L2.29167 16.91L3.0925 13.9975L2.90417 13.6984C2.11019 12.4412 1.6897 10.9844 1.69167 9.49755C1.69333 5.14505 5.25167 1.60422 9.62667 1.60422C11.745 1.60422 13.7367 2.42672 15.235 3.91922C15.9729 4.64971 16.5581 5.5197 16.9566 6.47854C17.355 7.43737 17.5587 8.46589 17.5558 9.50422C17.5533 13.8567 13.995 17.3984 9.62333 17.3984ZM16.375 2.78422C15.4888 1.89787 14.436 1.19556 13.2773 0.717737C12.1185 0.239911 10.8767 -0.00399852 9.62333 4.95738e-05C4.36333 4.95738e-05 0.0816666 4.26005 0.08 9.49672C0.08 11.1709 0.518333 12.805 1.35417 14.245L0 19.1667L5.05833 17.8459C6.45875 18.6047 8.0264 19.0019 9.61917 19.0017H9.62333C14.8833 19.0017 19.165 14.7409 19.1667 9.50422C19.1701 8.25501 18.925 7.0176 18.4456 5.86404C17.9661 4.71049 17.262 3.66384 16.3742 2.78505L16.375 2.78422Z" fill="black"/>
</svg>
