<svg width="20" height="14" viewBox="0 0 20 14" fill="none" xmlns="http://www.w3.org/2000/svg">
<path fill-rule="evenodd" clip-rule="evenodd" d="M17.8142 0.4175C18.2378 0.531632 18.6241 0.75505 18.9343 1.06539C19.2445 1.37573 19.4677 1.7621 19.5817 2.18583C20 3.74583 20 7 20 7C20 7 20 10.2542 19.5817 11.8142C19.4677 12.2378 19.2444 12.624 18.9342 12.9342C18.624 13.2444 18.2378 13.4677 17.8142 13.5817C16.2542 14 10 14 10 14C10 14 3.74583 14 2.18583 13.5817C1.76222 13.4677 1.37598 13.2444 1.06578 12.9342C0.755583 12.624 0.532317 12.2378 0.418333 11.8142C0 10.2542 0 7 0 7C0 7 0 3.74583 0.418333 2.18583C0.532266 1.7621 0.755502 1.37573 1.06569 1.06539C1.37589 0.75505 1.76215 0.531632 2.18583 0.4175C3.74583 -4.96705e-08 10 0 10 0C10 0 16.2542 -4.96705e-08 17.8142 0.4175ZM13.2625 6.9575L8.06667 9.9575V3.9575L13.2625 6.9575Z" fill="black"/>
</svg>
